<svg xmlns="http://www.w3.org/2000/svg" viewBox="0 0 1200 630" role="img" aria-label="V Rising Wiki">
  <defs>
    <linearGradient id="bg" x1="0" y1="0" x2="0" y2="1">
      <stop offset="0" stop-color="#1c1a20"/>
      <stop offset="1" stop-color="#0f0e12"/>
    </linearGradient>
    <linearGradient id="vblood" x1="0" y1="0" x2="0" y2="1">
      <stop offset="0" stop-color="#b32635"/>
      <stop offset="0.55" stop-color="#8b1e26"/>
      <stop offset="1" stop-color="#5c141c"/>
    </linearGradient>
    <linearGradient id="vdrop" x1="0" y1="0" x2="0" y2="1">
      <stop offset="0" stop-color="#d9394a"/>
      <stop offset="1" stop-color="#8b1e26"/>
    </linearGradient>
  </defs>
  <rect width="1200" height="630" fill="url(#bg)"/>
  <rect x="24" y="24" width="1152" height="582" fill="none" stroke="#c9a86a" stroke-opacity="0.35" stroke-width="2"/>
  <g transform="translate(430, 120) scale(1.6)">
    <path fill="url(#vblood)" stroke="#c9a86a" stroke-width="2" stroke-linejoin="miter"
          d="M8 10 L44 10 L47 16 L42 20 L64 76 L86 20 L81 16 L84 10 L120 10 L114 20 L108 22 L74 112 L64 122 L54 112 L20 22 L14 20 Z"/>
    <path fill="url(#vdrop)"
          d="M64 30 C60 40 55 46 55 53 A9 9 0 0 0 73 53 C73 46 68 40 64 30 Z"/>
  </g>
  <text x="600" y="420" text-anchor="middle" font-family="Georgia, 'Times New Roman', serif" font-weight="bold"
        font-size="84" letter-spacing="10" fill="#f2e6d0">V RISING</text>
  <text x="600" y="490" text-anchor="middle" font-family="Georgia, 'Times New Roman', serif"
        font-size="42" letter-spacing="26" fill="#c9a86a">WIKI</text>
  <text x="600" y="560" text-anchor="middle" font-family="Georgia, 'Times New Roman', serif"
        font-size="26" fill="#a9a9b3">The community encyclopedia for V Rising — wiki.v-ris.ing</text>
</svg>
